<svg xmlns="http://www.w3.org/2000/svg" viewBox="0 0 96 96" x="0px" y="0px">
    <title>Artboard 44</title>
    <g>
        <path d="M32,24a4.004,4.004,0,0,1,4-4,4,4,0,0,0,0-8A12.0131,12.0131,0,0,0,24,24V40c0,1.6758-2.7773,4-4,4a4,4,0,0,0,0,8c1.2227,0,4,2.3242,4,4V72A12.0131,12.0131,0,0,0,36,84a4,4,0,0,0,0-8,4.004,4.004,0,0,1-4-4V56a11.6773,11.6773,0,0,0-3.627-8A11.6773,11.6773,0,0,0,32,40Z"/>
        <path d="M76,44c-1.2227,0-4-2.3242-4-4V24A12.0131,12.0131,0,0,0,60,12a4,4,0,0,0,0,8,4.004,4.004,0,0,1,4,4V40a11.6773,11.6773,0,0,0,3.627,8A11.6773,11.6773,0,0,0,64,56V72a4.004,4.004,0,0,1-4,4,4,4,0,0,0,0,8A12.0131,12.0131,0,0,0,72,72V56c0-1.6758,2.7773-4,4-4a4,4,0,0,0,0-8Z"/>
    </g>
    </svg>