<svg xmlns="http://www.w3.org/2000/svg" viewBox="0 0 100 100" x="0px" y="0px">
    <title>Artboard 83</title>
    <path d="M33.13,16.48a10.25,10.25,0,1,0-.33,7.84A10.18,10.18,0,0,0,33.13,16.48Zm-2.15,7a8.25,8.25,0,1,1,.27-6.31A8.2,8.2,0,0,1,31,23.48Z"/>
    <path d="M27,19H24V15a1,1,0,0,0-2,0v5a1,1,0,0,0,1,1h4a1,1,0,0,0,0-2Z"/>
    <path d="M89,28H86.2l1.39-5.76a1,1,0,0,0-.19-.85,1,1,0,0,0-.53-.32L87.17,19H88a1,1,0,0,0,0-2h-.66a5.09,5.09,0,0,0-5.1-4.77l-.15,0-.65-1.88a1,1,0,0,0-1.89.65l.58,1.67a5.1,5.1,0,0,0-1.34.91l-1.07-1.07a1,1,0,0,0-1.41,1.41l1.3,1.3a5.23,5.23,0,0,0-.47,2.52l.48,3.3a1,1,0,0,0-.53.32,1,1,0,0,0-.19.85L78.27,28H71.75l2.06-1.53A1,1,0,0,0,74,25.1L64,10.48a1,1,0,0,0-1.42-.24l-3.07,2.29a1,1,0,0,0-.34.51A1,1,0,0,0,59,13H56V12a1,1,0,0,0-1-1H47a1,1,0,0,0-1,1V28H44a1,1,0,0,0,0,2H89a1,1,0,0,0,0-2ZM80.81,14.6A1,1,0,0,0,82,15a1,1,0,0,0,.63-.72,3.08,3.08,0,0,1,1.91.92A3.13,3.13,0,0,1,85.35,17H85a1,1,0,0,0,0,2h.16l-.29,2H79.6l-.5-3.45a3.14,3.14,0,0,1,.07-.8,1,1,0,0,0,1.24-1.53L80.19,15A3,3,0,0,1,80.81,14.6ZM79.12,23h6.24l-1.21,5H80.33ZM63,12.47l8.88,13-1.47,1.09-8.88-13ZM54,28H52V13h2ZM48,13h2V28H48Zm8,15V15h2V28Zm4-13.08L69,28H60Z"/>
    <path d="M43,65H25a4,4,0,0,0,0,8h8V84.35l-8.41,3.74a1,1,0,0,0,.81,1.83L34,86.09l8.59,3.82a1,1,0,0,0,.81-1.83L35,84.35V73h8a4,4,0,0,0,0-8Zm0,6H25a2,2,0,0,1,0-4H43a2,2,0,0,1,0,4Z"/>
    <path d="M30.46,41.79A1,1,0,0,0,29,40.38l-3.42,3.42A1,1,0,1,0,27,45.21Z"/>
    <path d="M32.79,40.5l-5.87,5.88a1,1,0,1,0,1.41,1.41l5.88-5.87a1,1,0,0,0-1.41-1.41Z"/>
    <path d="M76,65h4a1,1,0,0,0,0-2H76a1,1,0,0,0,0,2Z"/>
    <path d="M80,73H76a1,1,0,0,0,0,2h4a1,1,0,0,0,0-2Z"/>
    <path d="M80,83H76a1,1,0,0,0,0,2h4a1,1,0,0,0,0-2Z"/>
    <path d="M90,36a1,1,0,0,0-1-1H68a1,1,0,0,0-1,1V54H60V53a4.92,4.92,0,0,0,0-9.61V43a1,1,0,0,0-1-1H51a1,1,0,0,0-1,1V54H46.93a2.44,2.44,0,0,0,.07-.5A2.5,2.5,0,0,0,45,51s0,0,0,0V38a1,1,0,0,0-1-1H24a1,1,0,0,0-1,1V51s0,0,0,0a2.47,2.47,0,0,0-2,3H11a1,1,0,0,0-1,1V89a1,1,0,0,0,2,0V60H66V89a1,1,0,0,0,1,1H89a1,1,0,0,0,1-1V60a1,1,0,0,0-.15-.5A1,1,0,0,0,90,59V55a1,1,0,0,0-.15-.5A1,1,0,0,0,90,54ZM68,70H88v8H68ZM88,54H83V37h5ZM76,37h5V54H76Zm-7,0h5V54H69ZM61.88,48.19A3,3,0,0,1,60,50.91V45.46A3,3,0,0,1,61.88,48.19ZM52,44h6V54H52ZM25,39H43V51H25ZM23.32,54a.5.5,0,0,1,.18-1h21a.5.5,0,0,1,.22,1l-.06,0H23.37ZM12,58V56H88v2Zm76,2v8H68V60ZM68,88V80H88v8Z"/>
    <path d="M72,50H71a1,1,0,0,0,0,2h1a1,1,0,0,0,0-2Z"/>
    <path d="M79,50H78a1,1,0,0,0,0,2h1a1,1,0,0,0,0-2Z"/>
    <path d="M85,52h1a1,1,0,0,0,0-2H85a1,1,0,0,0,0,2Z"/>
</svg>